<?xml version="1.0" encoding="UTF-8"?>
<svg id="sr-logo-light" data-name="Layer 1" xmlns="http://www.w3.org/2000/svg" viewBox="0 0 1080 486">
  <defs>
    <style>
      .srl-1 {
        fill: #e07926;
      }

      .srl-2 {
        fill: #f79226;
      }

      .srl-3 {
        fill: #67308f;
      }
    </style>
  </defs>
  <path class="srl-3" d="M939.43,356.72h-10.97v-11.24h10.97v11.24Z"/>
  <g>
    <g>
      <path class="srl-3" d="M368.01,189.56h-9.01l-1.95-7.92c-1.46-1.38-3.3-2.49-5.51-3.32-2.21-.83-4.72-1.25-7.52-1.25-4.26,0-7.43.93-9.5,2.8-2.07,1.87-3.11,4.12-3.11,6.76s.91,4.65,2.74,6.15c1.83,1.5,5.54,2.84,11.15,4.02,8.32,1.79,14.52,4.21,18.58,7.28,4.06,3.07,6.09,7.18,6.09,12.33,0,5.85-2.37,10.58-7.1,14.19-4.73,3.61-10.91,5.42-18.55,5.42-4.99,0-9.48-.58-13.46-1.74-3.98-1.16-7.53-2.83-10.66-5.03l-.06-15.04h9.01l2.25,8.83c1.38,1.26,3.26,2.17,5.63,2.74,2.38.57,4.8.85,7.28.85,4.26,0,7.6-.86,10.02-2.59,2.42-1.73,3.62-3.99,3.62-6.79,0-2.64-1-4.81-3.01-6.52-2.01-1.71-5.82-3.19-11.42-4.45-8-1.75-14.03-4.12-18.09-7.13-4.06-3-6.09-7.07-6.09-12.18s2.28-9.93,6.85-13.7c4.57-3.78,10.51-5.66,17.82-5.66,4.99,0,9.48.65,13.46,1.95,3.98,1.3,7.29,3.11,9.93,5.42l.61,14.56Z"/>
      <path class="srl-3" d="M402.12,152.95v15.9h12.49v8.89h-12.49v40.02c0,3.09.64,5.26,1.92,6.52,1.28,1.26,2.97,1.89,5.09,1.89,1.06,0,2.24-.09,3.56-.27,1.32-.18,2.43-.37,3.32-.58l1.64,8.22c-1.14.73-2.8,1.33-4.99,1.8-2.19.47-4.39.7-6.58.7-4.87,0-8.75-1.47-11.63-4.42-2.88-2.94-4.32-7.56-4.32-13.86v-40.02h-10.42v-8.89h10.42v-15.9h12Z"/>
      <path class="srl-3" d="M469.85,234.75c-.37-1.79-.65-3.39-.85-4.81-.2-1.42-.35-2.84-.43-4.26-2.31,2.96-5.21,5.43-8.68,7.4-3.47,1.97-7.18,2.95-11.12,2.95-6.86,0-12.08-1.67-15.65-5.02-3.57-3.35-5.36-8.07-5.36-14.16s2.53-11.07,7.58-14.47c5.06-3.39,11.99-5.09,20.8-5.09h12.36v-7.67c0-3.86-1.22-6.91-3.65-9.17-2.44-2.25-5.83-3.38-10.17-3.38-3.01,0-5.66.39-7.95,1.16-2.29.77-4.15,1.83-5.57,3.17l-1.28,6.94h-9.26v-12.79c3-2.4,6.64-4.31,10.9-5.76,4.26-1.44,8.89-2.16,13.89-2.16,7.47,0,13.52,1.91,18.15,5.73,4.63,3.82,6.94,9.28,6.94,16.38v31.73c0,.85,0,1.69.03,2.5.02.81.07,1.62.15,2.44l4.87.67v7.67h-15.71ZM450.55,225.98c3.98,0,7.61-.95,10.9-2.86,3.29-1.91,5.64-4.2,7.07-6.88v-10.84h-12.79c-4.91,0-8.8,1.14-11.66,3.41-2.86,2.27-4.29,5.04-4.29,8.28,0,2.88.89,5.09,2.68,6.61,1.79,1.52,4.49,2.28,8.1,2.28Z"/>
      <path class="srl-3" d="M495.56,176.58v-7.74h20.65l1.16,9.56c1.87-3.37,4.17-6.01,6.91-7.92,2.74-1.91,5.88-2.86,9.41-2.86.93,0,1.9.07,2.89.21.99.14,1.76.29,2.28.46l-1.58,11.15-6.82-.37c-3.17,0-5.83.74-7.98,2.22-2.15,1.48-3.82,3.56-4.99,6.24v37.82l9.93,1.71v7.67h-31.86v-7.67l9.93-1.71v-47.08l-9.93-1.71Z"/>
      <path class="srl-3" d="M570.05,152.95v15.9h12.49v8.89h-12.49v40.02c0,3.09.64,5.26,1.92,6.52,1.28,1.26,2.97,1.89,5.09,1.89,1.06,0,2.24-.09,3.56-.27,1.32-.18,2.43-.37,3.32-.58l1.64,8.22c-1.14.73-2.8,1.33-4.99,1.8-2.19.47-4.39.7-6.58.7-4.87,0-8.75-1.47-11.63-4.42-2.88-2.94-4.32-7.56-4.32-13.86v-40.02h-10.42v-8.89h10.42v-15.9h12Z"/>
      <path class="srl-3" d="M641.92,225.01c-2.07,3.53-4.74,6.25-8.01,8.16-3.27,1.91-7.03,2.86-11.3,2.86-7.15,0-12.73-2.29-16.75-6.88-4.02-4.59-6.03-11.73-6.03-21.44v-29.42l-7.55-1.71v-7.74h19.55v38.98c0,7.03,1.04,11.86,3.11,14.5,2.07,2.64,5.3,3.96,9.68,3.96s7.79-.86,10.57-2.59c2.78-1.73,4.88-4.17,6.3-7.34v-38.07l-8.83-1.71v-7.74h20.83v56.52l7.55,1.71v7.67h-18.33l-.79-9.75Z"/>
      <path class="srl-3" d="M669.09,252.35l9.93-1.71v-72.36l-9.93-1.71v-7.74h20.22l1.1,8.04c2.19-3,4.86-5.3,8.01-6.88,3.15-1.58,6.79-2.38,10.93-2.38,8.16,0,14.51,3.24,19.03,9.72,4.53,6.48,6.79,15.03,6.79,25.67v1.28c0,9.5-2.27,17.17-6.82,22.99-4.55,5.83-10.82,8.74-18.82,8.74-4.06,0-7.62-.68-10.69-2.04-3.07-1.36-5.67-3.38-7.83-6.06v22.72l9.93,1.71v7.74h-31.86v-7.74ZM723.11,203.02c0-7.51-1.46-13.66-4.39-18.46-2.92-4.79-7.27-7.19-13.03-7.19-3.41,0-6.33.77-8.77,2.31-2.44,1.54-4.41,3.65-5.91,6.33v32.1c1.5,2.72,3.46,4.82,5.88,6.3,2.42,1.48,5.39,2.22,8.92,2.22,5.68,0,9.99-2.07,12.91-6.21,2.92-4.14,4.39-9.52,4.39-16.14v-1.28Z"/>
    </g>
    <g>
      <path class="srl-3" d="M319.65,298.55v-7.74h20.65l1.16,9.56c1.87-3.37,4.17-6.01,6.91-7.92,2.74-1.91,5.88-2.86,9.41-2.86.93,0,1.9.07,2.89.21.99.14,1.76.3,2.28.46l-1.58,11.15-6.82-.37c-3.17,0-5.83.74-7.98,2.22-2.15,1.48-3.82,3.56-4.99,6.24v37.82l9.93,1.71v7.67h-31.86v-7.67l9.93-1.71v-47.08l-9.93-1.71Z"/>
      <path class="srl-3" d="M400.17,358c-9.18,0-16.48-3.05-21.9-9.17-5.42-6.11-8.13-14.04-8.13-23.78v-2.68c0-9.38,2.79-17.19,8.37-23.42,5.58-6.23,12.19-9.35,19.83-9.35,8.85,0,15.56,2.68,20.13,8.04,4.57,5.36,6.85,12.51,6.85,21.44v7.49h-42.76l-.18.3c.12,6.33,1.73,11.54,4.81,15.62,3.09,4.08,7.41,6.12,12.97,6.12,4.06,0,7.62-.58,10.69-1.74,3.07-1.16,5.72-2.75,7.95-4.78l4.69,7.8c-2.36,2.27-5.47,4.19-9.35,5.76-3.88,1.56-8.54,2.34-13.98,2.34ZM398.35,299.04c-4.02,0-7.45,1.7-10.29,5.09-2.84,3.39-4.59,7.64-5.24,12.76l.12.3h30.39v-1.58c0-4.71-1.26-8.65-3.78-11.82-2.52-3.17-6.25-4.75-11.21-4.75Z"/>
      <path class="srl-3" d="M458.95,298.55l-7.92,1.22,13.58,37.52,1.1,4.75h.37l1.16-4.75,13.16-37.52-7.98-1.22v-7.74h25.46v7.74l-5.42.91-22.11,57.25h-9.08l-22.35-57.25-5.42-.91v-7.74h25.46v7.74Z"/>
      <path class="srl-3" d="M505.12,323.16c0-9.75,2.64-17.77,7.92-24.09,5.28-6.31,12.45-9.47,21.5-9.47s16.29,3.15,21.59,9.44c5.3,6.29,7.95,14.33,7.95,24.12v1.34c0,9.83-2.64,17.87-7.92,24.12-5.28,6.25-12.45,9.38-21.5,9.38s-16.34-3.14-21.62-9.41c-5.28-6.27-7.92-14.3-7.92-24.09v-1.34ZM517.12,324.5c0,6.98,1.47,12.75,4.42,17.3,2.94,4.55,7.32,6.82,13.13,6.82s10.01-2.27,12.97-6.82c2.96-4.55,4.45-10.31,4.45-17.3v-1.34c0-6.9-1.48-12.65-4.45-17.24-2.96-4.59-7.33-6.88-13.1-6.88s-10.11,2.29-13.03,6.88c-2.92,4.59-4.39,10.33-4.39,17.24v1.34Z"/>
      <path class="srl-3" d="M572.18,269.44v-7.74h21.93v85.64l9.93,1.71v7.67h-31.86v-7.67l9.93-1.71v-76.2l-9.93-1.71Z"/>
      <path class="srl-3" d="M660.25,346.98c-2.07,3.53-4.74,6.25-8.01,8.16-3.27,1.91-7.03,2.86-11.3,2.86-7.15,0-12.73-2.29-16.75-6.88-4.02-4.59-6.03-11.73-6.03-21.44v-29.42l-7.55-1.71v-7.74h19.55v38.98c0,7.03,1.04,11.86,3.11,14.5,2.07,2.64,5.3,3.96,9.68,3.96s7.79-.86,10.57-2.59c2.78-1.73,4.88-4.17,6.3-7.34v-38.07l-8.83-1.71v-7.74h20.83v56.52l7.55,1.71v7.67h-18.33l-.79-9.75Z"/>
      <path class="srl-3" d="M709.83,274.92v15.9h12.49v8.89h-12.49v40.02c0,3.09.64,5.26,1.92,6.52,1.28,1.26,2.97,1.89,5.09,1.89,1.06,0,2.24-.09,3.56-.27,1.32-.18,2.43-.37,3.32-.58l1.64,8.22c-1.14.73-2.8,1.33-4.99,1.8-2.19.47-4.39.7-6.58.7-4.87,0-8.75-1.47-11.63-4.42-2.88-2.94-4.32-7.56-4.32-13.86v-40.02h-10.42v-8.89h10.42v-15.9h12Z"/>
      <path class="srl-3" d="M734.56,349.05l9.93-1.71v-47.08l-9.93-1.71v-7.74h21.93v56.52l9.93,1.71v7.67h-31.86v-7.67ZM756.49,273.95h-12v-12.24h12v12.24Z"/>
      <path class="srl-3" d="M775.61,323.16c0-9.75,2.64-17.77,7.92-24.09,5.28-6.31,12.45-9.47,21.5-9.47s16.29,3.15,21.59,9.44c5.3,6.29,7.95,14.33,7.95,24.12v1.34c0,9.83-2.64,17.87-7.92,24.12-5.28,6.25-12.45,9.38-21.5,9.38s-16.34-3.14-21.62-9.41c-5.28-6.27-7.92-14.3-7.92-24.09v-1.34ZM787.61,324.5c0,6.98,1.47,12.75,4.42,17.3,2.94,4.55,7.32,6.82,13.13,6.82s10.01-2.27,12.97-6.82c2.96-4.55,4.45-10.31,4.45-17.3v-1.34c0-6.9-1.48-12.65-4.45-17.24-2.96-4.59-7.33-6.88-13.1-6.88s-10.11,2.29-13.03,6.88c-2.92,4.59-4.39,10.33-4.39,17.24v1.34Z"/>
      <path class="srl-3" d="M843.77,349.05l9.93-1.71v-47.08l-9.93-1.71v-7.74h20.65l.85,9.81c2.19-3.49,4.94-6.2,8.25-8.13,3.31-1.93,7.07-2.89,11.3-2.89,7.11,0,12.61,2.08,16.51,6.24,3.9,4.16,5.85,10.59,5.85,19.28v32.22l9.93,1.71v7.67h-31.86v-7.67l9.93-1.71v-31.98c0-5.81-1.15-9.93-3.44-12.36-2.29-2.44-5.8-3.65-10.51-3.65-3.45,0-6.51.83-9.17,2.5-2.66,1.67-4.78,3.94-6.36,6.82v38.68l9.93,1.71v7.67h-31.86v-7.67Z"/>
      <path class="srl-3" d="M996.26,356.72c-.37-1.79-.65-3.39-.85-4.81-.2-1.42-.35-2.84-.43-4.26-2.31,2.96-5.21,5.43-8.68,7.4-3.47,1.97-7.18,2.95-11.12,2.95-6.86,0-12.08-1.67-15.65-5.02-3.57-3.35-5.36-8.07-5.36-14.16s2.53-11.07,7.58-14.47c5.06-3.39,11.99-5.09,20.8-5.09h12.36v-7.67c0-3.86-1.22-6.91-3.65-9.17-2.44-2.25-5.83-3.38-10.17-3.38-3.01,0-5.66.39-7.95,1.16-2.29.77-4.15,1.83-5.57,3.17l-1.28,6.94h-9.26v-12.79c3-2.4,6.64-4.31,10.9-5.76,4.26-1.44,8.89-2.16,13.89-2.16,7.47,0,13.52,1.91,18.15,5.73,4.63,3.82,6.94,9.28,6.94,16.38v31.73c0,.85,0,1.69.03,2.5.02.81.07,1.62.15,2.44l4.87.67v7.67h-15.71ZM976.95,347.95c3.98,0,7.61-.95,10.9-2.86,3.29-1.91,5.64-4.2,7.07-6.88v-10.84h-12.79c-4.91,0-8.8,1.14-11.66,3.41-2.86,2.27-4.29,5.04-4.29,8.28,0,2.88.89,5.09,2.68,6.61,1.79,1.52,4.49,2.28,8.1,2.28Z"/>
      <path class="srl-3" d="M1021.96,349.05l9.93-1.71v-47.08l-9.93-1.71v-7.74h21.93v56.52l9.93,1.71v7.67h-31.86v-7.67ZM1043.89,273.95h-12v-12.24h12v12.24Z"/>
    </g>
  </g>
  <g>
    <path class="srl-3" d="M230.13,152.9H77.38v111.31c0,23.52,19.07,42.59,42.59,42.59h100.56l52.18,49.33v-160.64c0-23.52-19.07-42.59-42.59-42.59ZM114.14,244.11c-6.93,0-12.54-5.61-12.54-12.54s5.61-12.54,12.54-12.54,12.54,5.61,12.54,12.54-5.61,12.54-12.54,12.54ZM175.05,244.11c-6.93,0-12.54-5.61-12.54-12.54s5.61-12.54,12.54-12.54,12.54,5.61,12.54,12.54-5.61,12.54-12.54,12.54ZM235.96,244.11c-6.93,0-12.54-5.61-12.54-12.54s5.61-12.54,12.54-12.54,12.54,5.61,12.54,12.54-5.61,12.54-12.54,12.54Z"/>
    <polygon class="srl-1" points="77.38 249.88 77.38 249.88 77.38 249.88 77.38 249.88 77.38 249.88 26.18 306.8 77.38 306.8 77.38 306.8 128.58 306.8 77.38 249.88"/>
    <polygon class="srl-2" points="220.53 306.8 150.49 240.65 77.65 306.8 220.53 306.8"/>
  </g>
</svg>
